<svg width="125" height="38" viewBox="0 0 125 38" fill="none" xmlns="http://www.w3.org/2000/svg">
<g filter="url(#filter0_d_138_3642)">
<path d="M3.2 0H16L16 36H3.2V27L0 24.75V11.25L3.2 9V0Z" fill="#1E293B"/>
<rect width="91" height="36" transform="translate(16)" fill="#1E293B"/>
<path d="M35.2188 10.9688H27.5625C27.131 10.9688 26.7812 11.3185 26.7812 11.75C26.7812 12.1815 27.131 12.5312 27.5625 12.5312H35.2188C35.6502 12.5312 36 12.1815 36 11.75C36 11.3185 35.6502 10.9688 35.2188 10.9688Z" fill="#31FBFB"/>
<path d="M35.2188 17.2188H34.4594C34.1369 16.3095 33.2685 15.6562 32.25 15.6562H29.125C28.1065 15.6562 27.2382 16.3095 26.9156 17.2188H16.7812C16.3498 17.2188 16 17.5685 16 18C16 18.4315 16.3498 18.7812 16.7812 18.7812H26.9156C27.2381 19.6905 28.1065 20.3438 29.125 20.3438H32.25C33.2685 20.3438 34.1368 19.6905 34.4594 18.7812H35.2188C35.6502 18.7812 36 18.4315 36 18C36 17.5685 35.6502 17.2188 35.2188 17.2188ZM32.25 18.7812H29.125C28.6942 18.7812 28.3438 18.4308 28.3438 18C28.3438 17.5692 28.6942 17.2188 29.125 17.2188H32.25C32.6808 17.2188 33.0312 17.5692 33.0312 18C33.0312 18.4308 32.6808 18.7812 32.25 18.7812Z" fill="#31FBFB"/>
<path d="M35.2188 23.4688H28.2094C27.8869 22.5595 27.0185 21.9062 26 21.9062H22.875C21.8565 21.9062 20.9882 22.5595 20.6656 23.4688H16.7812C16.3498 23.4688 16 23.8185 16 24.25C16 24.6815 16.3498 25.0312 16.7812 25.0312H20.6656C20.9881 25.9405 21.8565 26.5938 22.875 26.5938H26C27.0185 26.5938 27.8868 25.9405 28.2094 25.0312H35.2188C35.6502 25.0312 36 24.6815 36 24.25C36 23.8185 35.6502 23.4688 35.2188 23.4688ZM26 25.0312H22.875C22.4442 25.0312 22.0938 24.6808 22.0938 24.25C22.0938 23.8192 22.4442 23.4688 22.875 23.4688H26C26.4308 23.4688 26.7812 23.8192 26.7812 24.25C26.7812 24.6808 26.4308 25.0312 26 25.0312Z" fill="#38BDF8"/>
<path d="M17.5406 10.9688H16.7812C16.3498 10.9688 16 11.3185 16 11.75C16 12.1815 16.3498 12.5312 16.7812 12.5312H17.5406C17.8631 13.4405 18.7315 14.0938 19.75 14.0938H22.875C24.1673 14.0938 25.2188 13.0423 25.2188 11.75C25.2188 10.4577 24.1673 9.40625 22.875 9.40625H19.75C18.7315 9.40625 17.8632 10.0595 17.5406 10.9688ZM23.6562 11.75C23.6562 12.1808 23.3058 12.5312 22.875 12.5312H19.75C19.3192 12.5312 18.9688 12.1808 18.9688 11.75C18.9688 11.3192 19.3192 10.9688 19.75 10.9688H22.875C23.3058 10.9688 23.6562 11.3192 23.6562 11.75Z" fill="#38BDF8"/>
<path d="M52.224 11.8H53.984L58.032 23H56.144L55.184 20.344H51.008L50.048 23H48.16L52.224 11.8ZM54.752 18.792L53.104 14.056H53.072L51.456 18.792H54.752ZM59.3075 11.576H61.1155V23H59.3075V11.576ZM63.3544 11.576H65.1624V23H63.3544V11.576ZM74.1644 13.384H70.8044V11.8H79.3804V13.384H76.0204V23H74.1644V13.384ZM80.4288 13.32V12.392L81.0848 11.752H82.0608L82.7168 12.392V13.32L82.0608 13.96H81.0848L80.4288 13.32ZM80.6688 15.032H82.4768V23H80.6688V15.032ZM84.7119 15.032H86.3919V16.424L87.7679 15.032H89.7519L90.8879 16.184L92.0399 15.032H94.7279L96.3599 16.68V23H94.5519V17.208L93.9279 16.584H92.4399L91.5119 17.512V23H89.7519V17.192L89.1439 16.584H88.0559L86.5199 18.136V23H84.7119V15.032ZM98.1925 21.416V16.632L99.7765 15.032H104.113L105.729 16.632V19.608H100.001V20.888L100.609 21.496H103.345L103.921 20.904V20.424H105.713V21.448L104.161 23H99.7605L98.1925 21.416ZM103.921 18.28V17.176L103.297 16.536H100.625L100.001 17.176V18.28H103.921Z" fill="#38BDF8"/>
<path d="M119.8 0H107L107 36H119.8V27L123 24.75V11.25L119.8 9V0Z" fill="#1E293B"/>
</g>
<defs>
<filter id="filter0_d_138_3642" x="0" y="0" width="125" height="38" filterUnits="userSpaceOnUse" color-interpolation-filters="sRGB">
<feFlood flood-opacity="0" result="BackgroundImageFix"/>
<feColorMatrix in="SourceAlpha" type="matrix" values="0 0 0 0 0 0 0 0 0 0 0 0 0 0 0 0 0 0 127 0" result="hardAlpha"/>
<feOffset dx="2" dy="2"/>
<feComposite in2="hardAlpha" operator="out"/>
<feColorMatrix type="matrix" values="0 0 0 0 0.219608 0 0 0 0 0.741176 0 0 0 0 0.972549 0 0 0 1 0"/>
<feBlend mode="normal" in2="BackgroundImageFix" result="effect1_dropShadow_138_3642"/>
<feBlend mode="normal" in="SourceGraphic" in2="effect1_dropShadow_138_3642" result="shape"/>
</filter>
</defs>
</svg>
